<svg xmlns="http://www.w3.org/2000/svg" viewBox="0 0 82 51.02"><defs><style>.cls-1{fill:#fff;}.cls-2{fill:#333;}</style></defs><title>アセット 6ddd</title><g id="レイヤー_2" data-name="レイヤー 2"><g id="レイヤー_1-2" data-name="レイヤー 1"><path class="cls-1" d="M81,46a4,4,0,0,1-4,4H5a4,4,0,0,1-4-4V5A4,4,0,0,1,5,1H77a4,4,0,0,1,4,4Z"/><path class="cls-2" d="M81,46H80a3,3,0,0,1-3,3H5a3,3,0,0,1-3-3V5a3.24,3.24,0,0,1,.88-2.12A3.11,3.11,0,0,1,4.22,2.1,2.92,2.92,0,0,1,5,2H77a3.45,3.45,0,0,1,.77.1,3.4,3.4,0,0,1,1.34.78A3.24,3.24,0,0,1,80,5V46h2V5a5,5,0,0,0-5-5H5A5,5,0,0,0,0,5V46a5,5,0,0,0,5,5H77a5,5,0,0,0,5-5Z"/><path class="cls-2" d="M1.13,2.52l36.47,25a7.2,7.2,0,0,0,7.71,0l35.57-25L79.73.88l-35.57,25a4.89,4.89,0,0,1-2.74.78,4.83,4.83,0,0,1-2.69-.75L2.26.87,1.13,2.52Z"/></g></g></svg>