<svg xmlns="http://www.w3.org/2000/svg" viewBox="0 0 102.77 110.44"><defs><style>.cls-1{fill:#fff;}.cls-2{fill:#333;}</style></defs><title>アセット 2</title><g id="レイヤー_2" data-name="レイヤー 2"><g id="レイヤー_1-2" data-name="レイヤー 1"><path class="cls-1" d="M43.28,54.17a59.79,59.79,0,0,1-18-3.74c-6.11-2.3-13.7-5.15-18.81-11.94C-.86,28.71.92,16.11,2.1,10.94l16.56,9a1,1,0,0,0,.47.12,1,1,0,0,0,.55-.16,1,1,0,0,0,.45-.92L18.62,1.34c6.27,1.78,18.43,6.52,23.25,17.31,2.74,6.14,2.71,13.27,2.68,20.82A90.61,90.61,0,0,1,43.28,54.17Z"/><path class="cls-2" d="M19.74,2.72c6.38,2,16.9,6.66,21.22,16.34C43.6,25,43.58,32,43.55,39.47a89.19,89.19,0,0,1-1.11,13.64A58.64,58.64,0,0,1,25.67,49.5c-6.29-2.37-13.43-5.06-18.36-11.61C.74,29.17,1.71,18.07,2.8,12.45l6.94,3.77,8.44,4.58a2,2,0,0,0,2.95-1.93l-.82-9.52-.57-6.63M17.5,0q.81,9.52,1.63,19L1.43,9.44c-.76,2.9-4.47,18,4.28,29.65C11,46.11,18.67,49,25,51.37A60.79,60.79,0,0,0,44.11,55.2a91.21,91.21,0,0,0,1.44-15.73c0-7.66.06-14.9-2.77-21.23C37.13,5.58,22.12,1.17,17.5,0Z"/><path class="cls-1" d="M78.08,68.69a41.62,41.62,0,0,1-4.17-11.88c-.85-4.49-1.9-10.07.29-15.55,3-7.65,10.76-11.18,14.45-12.47l.63,12.89a1,1,0,0,0,.57.85.91.91,0,0,0,.43.1,1,1,0,0,0,.59-.19l9.72-7.12c1.19,4.52,2.55,13.15-2,19.71-2.65,3.84-6.93,6.42-11.47,9.16A63,63,0,0,1,78.08,68.69Z"/><path class="cls-2" d="M87.71,30.21l.22,4.42.35,7.1a2,2,0,0,0,2,1.9,2,2,0,0,0,1.18-.39l.82-.6L100,37c1,4.58,1.68,11.85-2.19,17.45-2.53,3.67-6.73,6.2-11.17,8.87a63.5,63.5,0,0,1-8.06,4.09,40.52,40.52,0,0,1-3.66-10.8c-.87-4.58-1.84-9.78.23-15,2.59-6.5,8.78-9.89,12.59-11.42m1.87-2.77c-2,.6-12.51,3.91-16.31,13.45C71,46.64,72,52.33,72.92,57a43,43,0,0,0,4.71,13,64.59,64.59,0,0,0,10-4.9c4.63-2.8,9-5.43,11.79-9.45,5.57-8.06,2.72-18.72,1.73-21.94l-10.88,8-.7-14.19Z"/><path class="cls-1" d="M49.58,109.44a20.3,20.3,0,0,1-5.07-.63C35.4,106.49,30.32,98.2,28.39,94.33l14.41-2.6a1,1,0,0,0,.55-1.67L33.9,80.14A34.72,34.72,0,0,1,47,77.29a20.32,20.32,0,0,1,9.42,2.15c4.69,2.41,8.19,6.81,11.89,11.47a71.61,71.61,0,0,1,6.39,9.52,47.19,47.19,0,0,1-12.74,6.45C58.25,108.08,54.09,109.44,49.58,109.44Z"/><path class="cls-2" d="M47,78.29h0a19.38,19.38,0,0,1,9,2c4.5,2.32,7.93,6.64,11.57,11.22a69.87,69.87,0,0,1,5.85,8.59,45.65,45.65,0,0,1-11.73,5.8c-3.6,1.17-7.68,2.51-12,2.51a19.31,19.31,0,0,1-4.83-.6c-7.88-2-12.63-8.73-14.84-12.77L43,92.72a2,2,0,0,0,1.09-3.35l-8.42-8.85A33.07,33.07,0,0,1,47,78.29m0-2a37.33,37.33,0,0,0-14.77,3.5l10.44,11-15.7,2.83c1,2.17,6.17,13.36,17.33,16.2a21.17,21.17,0,0,0,5.32.66c4.67,0,9-1.4,12.65-2.61A47.94,47.94,0,0,0,76,100.72a71.45,71.45,0,0,0-6.9-10.43c-3.78-4.75-7.34-9.23-12.22-11.74A21.42,21.42,0,0,0,47,76.29Z"/></g></g></svg>