<svg xmlns="http://www.w3.org/2000/svg" viewBox="0 0 91.57 97.21"><defs><style>.cls-1{fill:#212121;}</style></defs><title>アセット 15</title><g id="レイヤー_2" data-name="レイヤー 2"><g id="レイヤー_1-2" data-name="レイヤー 1"><path class="cls-1" d="M36.12,47H35.9a55.61,55.61,0,0,1-13.22-3.06c-5.42-2-12.17-4.58-16.7-10.6-7.43-9.87-4.53-22-4.5-22.14A1.72,1.72,0,0,1,3.14,9.73a2.25,2.25,0,0,1,1,.28l9.47,5.14a3.63,3.63,0,0,0,1.74.49,2.28,2.28,0,0,0,1.71-.72,3.13,3.13,0,0,0,.68-2.47l-.85-9.83a1.76,1.76,0,0,1,.36-1.34,1.27,1.27,0,0,1,1-.39,2.53,2.53,0,0,1,.64.09c.14,0,13.68,4,18.46,14.74,2.43,5.45,2.41,11.78,2.38,18.48A78,78,0,0,1,39,44.53,3,3,0,0,1,36.12,47Z"/><path class="cls-1" d="M18.27,1.78h0a1.55,1.55,0,0,1,.4.06c.13,0,13.28,3.91,17.89,14.24,2.35,5.27,2.33,11.51,2.3,18.12a77.51,77.51,0,0,1-.72,10.2,2.1,2.1,0,0,1-2,1.72H36a54.68,54.68,0,0,1-13-3C17.4,41,11.07,38.62,6.69,32.8-.46,23.31,2.31,11.53,2.34,11.41c.07-.29.28-.79.8-.79a1.41,1.41,0,0,1,.61.17l9.47,5.14a4.5,4.5,0,0,0,2.16.6,3.17,3.17,0,0,0,2.36-1,4,4,0,0,0,.91-3.14l-.84-9.83a.87.87,0,0,1,.13-.67.42.42,0,0,1,.33-.1m0-1.78A2.24,2.24,0,0,0,16,2.7l.84,9.83c.13,1.4-.5,2.23-1.5,2.23a2.81,2.81,0,0,1-1.31-.39L4.59,9.23a3.1,3.1,0,0,0-1.45-.39A2.6,2.6,0,0,0,.62,11S-2.5,23.55,5.27,33.87c4.69,6.23,11.51,8.8,17.09,10.9a56.13,56.13,0,0,0,13.46,3.11l.3,0a3.89,3.89,0,0,0,3.78-3.24,78.65,78.65,0,0,0,.74-10.45c0-6.81,0-13.23-2.46-18.85-5-11.25-19-15.23-19-15.23A3.18,3.18,0,0,0,18.27,0Z"/><path class="cls-1" d="M71,59.29a3,3,0,0,1-2.67-1.6,34.84,34.84,0,0,1-2.5-8.09c-.75-4-1.69-8.94.26-13.81A18.51,18.51,0,0,1,76.61,25.43a2.25,2.25,0,0,1,.71-.12,1.7,1.7,0,0,1,1.7,1.8l.27,5.51c.09,1.74,1,2.86,2.46,2.86a3.44,3.44,0,0,0,2-.74l3.93-2.88a1.9,1.9,0,0,1,1.1-.41c.62,0,1.11.46,1.33,1.26,0,.08,2.28,8.6-2.36,15.31-2.36,3.41-6.17,5.7-10.19,8.13a47.57,47.57,0,0,1-5.5,2.93A2.8,2.8,0,0,1,71,59.29Z"/><path class="cls-1" d="M77.32,26.2c.67,0,.8.6.82.95l.27,5.51c.12,2.56,1.76,3.71,3.34,3.71a4.31,4.31,0,0,0,2.52-.91l3.93-2.88a1.07,1.07,0,0,1,.58-.25c.28,0,.43.47.47.61S91.44,41.12,87,47.51c-2.25,3.26-6,5.51-9.92,7.88a48.62,48.62,0,0,1-5.38,2.87,2,2,0,0,1-.73.14,2.1,2.1,0,0,1-1.87-1.11,32.61,32.61,0,0,1-2.43-7.85c-.77-4.08-1.64-8.69.21-13.32a17.37,17.37,0,0,1,10-9.85,1.75,1.75,0,0,1,.44-.07m0-1.77a3.06,3.06,0,0,0-1,.15,19.28,19.28,0,0,0-11.1,10.88c-2,5.11-1.08,10.17-.3,14.3a34.64,34.64,0,0,0,2.58,8.33A3.89,3.89,0,0,0,71,60.18a3.66,3.66,0,0,0,1.41-.28,48,48,0,0,0,5.61-3c4.12-2.48,8-4.82,10.47-8.39C93.42,41.37,91,32.47,91,32.47a2.31,2.31,0,0,0-2.18-1.91,2.79,2.79,0,0,0-1.63.59L83.22,34a2.54,2.54,0,0,1-1.47.57c-.88,0-1.51-.72-1.57-2l-.27-5.51A2.58,2.58,0,0,0,77.32,24.43Z"/><path class="cls-1" d="M44.22,96.33a18.13,18.13,0,0,1-4.5-.56A21.55,21.55,0,0,1,26.41,85.1a1.74,1.74,0,0,1,1.36-2.61l6.94-1.25a2.61,2.61,0,0,0,1.53-4.69L31.87,72a1.59,1.59,0,0,1-.54-1.42,1.61,1.61,0,0,1,1.06-1.09,26.57,26.57,0,0,1,9.25-1.72,18.67,18.67,0,0,1,8.62,2c4.16,2.14,7.27,6,10.56,10.19A57,57,0,0,1,65.1,86a3,3,0,0,1-.9,3.88,41,41,0,0,1-9,4.22C51.92,95.12,48.23,96.33,44.22,96.33Z"/><path class="cls-1" d="M41.64,68.62h0a17.7,17.7,0,0,1,8.21,1.86c4,2,7,5.89,10.27,10a56.54,56.54,0,0,1,4.21,6,2.09,2.09,0,0,1-.62,2.7,39.23,39.23,0,0,1-8.81,4.11c-3.19,1.05-6.82,2.23-10.68,2.23a16.84,16.84,0,0,1-4.28-.53A20.71,20.71,0,0,1,27.21,84.73a1,1,0,0,1-.06-.9,1.06,1.06,0,0,1,.77-.47l6.95-1.25a3.48,3.48,0,0,0,2-6.17l-4.37-4.59c-.27-.28-.34-.52-.31-.63s.18-.3.54-.46a25.79,25.79,0,0,1,8.9-1.64m0-1.78a27.22,27.22,0,0,0-9.59,1.79,2.29,2.29,0,0,0-.82,4l4.36,4.58c1.35,1.42.88,2.86-1,3.2l-6.94,1.26a2.61,2.61,0,0,0-2,3.85A22.26,22.26,0,0,0,39.5,96.63a19,19,0,0,0,4.72.58c4.15,0,8-1.24,11.23-2.31a40.91,40.91,0,0,0,9.25-4.32,3.88,3.88,0,0,0,1.16-5.07,56.71,56.71,0,0,0-4.35-6.18C58.16,75.11,55,71.13,50.66,68.9A19.59,19.59,0,0,0,41.64,66.84Z"/></g></g></svg>