<svg xmlns="http://www.w3.org/2000/svg" viewBox="0 0 102.77 110.44"><defs><style>.cls-1{fill:#fff;}</style></defs><title>アセット 8ddd</title><g id="レイヤー_2" data-name="レイヤー 2"><g id="レイヤー_1-2" data-name="レイヤー 1"><path class="cls-1" d="M42.78,18.24c2.83,6.33,2.8,13.57,2.77,21.23A91.21,91.21,0,0,1,44.11,55.2,60.79,60.79,0,0,1,25,51.37C18.67,49,11,46.11,5.71,39.09-3,27.47.67,12.34,1.43,9.44L19.13,19,17.5,0C22.12,1.17,37.13,5.58,42.78,18.24Z"/><path class="cls-1" d="M99.43,55.6c-2.78,4-7.16,6.65-11.79,9.45a64.59,64.59,0,0,1-10,4.9,43,43,0,0,1-4.71-13c-.88-4.66-2-10.35.35-16.1C77.07,31.35,87.55,28,89.58,27.44l.7,14.19,10.88-8C102.15,36.88,105,47.54,99.43,55.6Z"/><path class="cls-1" d="M56.84,78.55c4.88,2.51,8.44,7,12.22,11.74A71.45,71.45,0,0,1,76,100.72a47.94,47.94,0,0,1-13.73,7.11c-5.06,1.65-11.23,3.67-18,2-11.16-2.84-16.36-14-17.33-16.2l15.7-2.83-10.44-11C35.62,78.23,47.07,73.52,56.84,78.55Z"/></g></g></svg>